<svg xmlns="http://www.w3.org/2000/svg" xmlns:xlink="http://www.w3.org/1999/xlink" width="500" zoomAndPan="magnify" viewBox="0 0 375 374.999991" height="500" preserveAspectRatio="xMidYMid meet" version="1.0"><defs><clipPath id="6e5c38be1a"><path d="M 15 15 L 360 15 L 360 360 L 15 360 Z M 15 15 " clip-rule="nonzero"/></clipPath><clipPath id="85b98db907"><path d="M 204.777344 24.527344 L 206.621094 27.140625 C 216.625 41.34375 235.355469 46.363281 251.121094 39.066406 L 254.023438 37.722656 C 260.261719 34.835938 267.515625 35.160156 273.46875 38.597656 C 279.421875 42.035156 283.332031 48.152344 283.949219 55 L 284.238281 58.183594 C 285.800781 75.488281 299.511719 89.199219 316.816406 90.761719 L 320 91.050781 C 326.847656 91.667969 332.964844 95.578125 336.402344 101.53125 C 339.839844 107.484375 340.164062 114.738281 337.277344 120.976562 L 335.933594 123.878906 C 328.636719 139.644531 333.65625 158.375 347.859375 168.378906 L 350.472656 170.222656 C 356.09375 174.179688 359.4375 180.625 359.4375 187.5 C 359.4375 194.375 356.09375 200.816406 350.472656 204.777344 L 347.859375 206.621094 C 333.65625 216.625 328.636719 235.355469 335.933594 251.121094 L 337.277344 254.023438 C 340.164062 260.261719 339.839844 267.515625 336.402344 273.46875 C 332.964844 279.421875 326.847656 283.332031 320 283.949219 L 316.816406 284.238281 C 299.511719 285.800781 285.800781 299.511719 284.238281 316.816406 L 283.949219 320 C 283.332031 326.847656 279.421875 332.964844 273.46875 336.402344 C 267.515625 339.839844 260.261719 340.164062 254.023438 337.277344 L 251.121094 335.933594 C 235.355469 328.636719 216.625 333.65625 206.621094 347.859375 L 204.777344 350.472656 C 200.816406 356.09375 194.375 359.4375 187.5 359.4375 C 180.625 359.4375 174.179688 356.09375 170.222656 350.472656 L 168.378906 347.859375 C 158.375 333.65625 139.644531 328.636719 123.878906 335.933594 L 120.976562 337.277344 C 114.738281 340.164062 107.484375 339.839844 101.53125 336.402344 C 95.578125 332.964844 91.667969 326.847656 91.050781 320 L 90.761719 316.816406 C 89.199219 299.511719 75.488281 285.800781 58.183594 284.238281 L 55 283.949219 C 48.152344 283.332031 42.035156 279.421875 38.597656 273.46875 C 35.160156 267.515625 34.835938 260.261719 37.722656 254.023438 L 39.066406 251.121094 C 46.363281 235.355469 41.34375 216.625 27.140625 206.621094 L 24.527344 204.777344 C 18.90625 200.820312 15.5625 194.375 15.5625 187.5 C 15.5625 180.625 18.90625 174.179688 24.527344 170.222656 L 27.140625 168.378906 C 41.34375 158.375 46.363281 139.644531 39.066406 123.878906 L 37.722656 120.976562 C 34.835938 114.738281 35.160156 107.484375 38.597656 101.53125 C 42.035156 95.578125 48.152344 91.667969 55 91.050781 L 58.183594 90.761719 C 75.488281 89.199219 89.199219 75.488281 90.761719 58.183594 L 91.050781 55 C 91.667969 48.152344 95.578125 42.035156 101.53125 38.597656 C 107.484375 35.160156 114.738281 34.835938 120.976562 37.722656 L 123.878906 39.066406 C 139.644531 46.363281 158.375 41.34375 168.378906 27.140625 L 170.222656 24.527344 C 174.179688 18.90625 180.625 15.5625 187.5 15.5625 C 194.375 15.5625 200.820312 18.90625 204.777344 24.527344 Z M 204.777344 24.527344 " clip-rule="nonzero"/></clipPath><clipPath id="a8c2e3de4c"><path d="M 119 119 L 256 119 L 256 256 L 119 256 Z M 119 119 " clip-rule="nonzero"/></clipPath><clipPath id="10761edd02"><path d="M 137.199219 262.722656 L 112.269531 237.792969 L 237.890625 112.171875 L 262.820312 137.101562 Z M 137.199219 262.722656 " clip-rule="nonzero"/></clipPath><clipPath id="8619899c24"><path d="M 125 250.523438 L 124.46875 249.992188 C 121.230469 246.753906 119.414062 242.367188 119.414062 237.792969 C 119.414062 233.21875 121.230469 228.832031 124.46875 225.59375 L 225.597656 124.464844 C 228.832031 121.230469 233.21875 119.414062 237.792969 119.414062 C 242.371094 119.414062 246.757812 121.230469 249.992188 124.464844 L 250.527344 125 C 253.761719 128.234375 255.578125 132.621094 255.578125 137.199219 C 255.578125 141.773438 253.761719 146.160156 250.527344 149.394531 L 149.398438 250.523438 C 146.160156 253.761719 141.773438 255.578125 137.199219 255.578125 C 132.625 255.578125 128.234375 253.761719 125 250.523438 Z M 125 250.523438 " clip-rule="nonzero"/></clipPath><clipPath id="10d47b204b"><path d="M 119 119 L 256 119 L 256 256 L 119 256 Z M 119 119 " clip-rule="nonzero"/></clipPath><clipPath id="cb3b490a1a"><path d="M 262.722656 237.796875 L 237.792969 262.726562 L 112.171875 137.105469 L 137.101562 112.175781 Z M 262.722656 237.796875 " clip-rule="nonzero"/></clipPath><clipPath id="4046e5b241"><path d="M 250.523438 249.996094 L 249.988281 250.527344 C 246.753906 253.761719 242.367188 255.582031 237.792969 255.582031 C 233.21875 255.582031 228.828125 253.761719 225.59375 250.527344 L 124.464844 149.398438 C 121.230469 146.164062 119.414062 141.777344 119.414062 137.203125 C 119.414062 132.625 121.230469 128.238281 124.464844 125.003906 L 125 124.46875 C 128.234375 121.234375 132.621094 119.417969 137.195312 119.417969 C 141.773438 119.417969 146.160156 121.234375 149.394531 124.46875 L 250.523438 225.597656 C 253.757812 228.835938 255.578125 233.222656 255.578125 237.796875 C 255.578125 242.371094 253.757812 246.757812 250.523438 249.996094 Z M 250.523438 249.996094 " clip-rule="nonzero"/></clipPath></defs><g clip-path="url(#6e5c38be1a)"><g clip-path="url(#85b98db907)"><rect x="-37.5" width="450" fill="#fd0000" y="-37.499999" height="449.999989" fill-opacity="1"/></g></g><g clip-path="url(#a8c2e3de4c)"><g clip-path="url(#10761edd02)"><g clip-path="url(#8619899c24)"><path fill="#ffffff" d="M 137.199219 262.722656 L 112.269531 237.792969 L 237.792969 112.269531 L 262.722656 137.199219 Z M 137.199219 262.722656 " fill-opacity="1" fill-rule="nonzero"/></g></g></g><g clip-path="url(#10d47b204b)"><g clip-path="url(#cb3b490a1a)"><g clip-path="url(#4046e5b241)"><path fill="#ffffff" d="M 262.722656 237.796875 L 237.792969 262.726562 L 112.269531 137.203125 L 137.199219 112.273438 Z M 262.722656 237.796875 " fill-opacity="1" fill-rule="nonzero"/></g></g></g></svg>